<?xml version="1.0" standalone="no"?><!DOCTYPE svg PUBLIC "-//W3C//DTD SVG 1.1//EN" "http://www.w3.org/Graphics/SVG/1.1/DTD/svg11.dtd"><svg t="1506330030271" class="icon" style="" viewBox="0 0 1024 1024" version="1.1" xmlns="http://www.w3.org/2000/svg" p-id="1442" xmlns:xlink="http://www.w3.org/1999/xlink" width="200" height="200"><defs><style type="text/css"></style></defs><path d="M857.430985 18.537486H166.579337A148.072815 148.072815 0 0 0 18.537486 166.59998v690.841326a148.010886 148.010886 0 0 0 148.041851 148.031529h690.851648c81.746598 0 148.031529-66.284931 148.031529-148.031529V166.59998c0-81.777563-66.284931-148.062494-148.031529-148.062494zM646.592884 649.937063a63.910977 63.910977 0 0 1-63.941942 63.941941H239.531983a63.921298 63.921298 0 0 1-63.93162-63.941941V374.062937a63.910977 63.910977 0 0 1 63.93162-63.921298h343.139603a63.890334 63.890334 0 0 1 63.941941 63.921298v275.874126h-0.020643z m201.848039-13.46961c0 18.506522-13.46961 25.256809-30.283399 15.141699l-90.839875-52.154742c-16.813789-10.084145-30.262756-20.199254-30.262755-36.971757V444.724201c0-16.82411 13.448967-25.246487 30.262755-35.32031l90.839875-52.154743c16.813789-10.094466 30.283399-1.67209 30.283399 15.1417v264.076605z" fill="#5AAAE7" p-id="1443"></path><path d="M306.79746 397.60637c-21.861022 3.354501-40.377865 21.850701-45.43542 45.425099-8.401734 40.357222 26.918577 77.370265 68.978853 68.947888 21.871344-5.016269 40.367544-23.52279 45.425098-47.097188 8.422377-42.029312-26.928898-77.349622-68.968531-67.275799z" fill="#5AAAE7" p-id="1444"></path></svg>